<svg width="80" height="78" viewBox="0 0 80 78" fill="none" xmlns="http://www.w3.org/2000/svg">
<g clip-path="url(#clip0_1439_1052)">
<path fill-rule="evenodd" clip-rule="evenodd" d="M40.8089 31.6539C40.9704 31.3847 41.0459 30.7768 41.1504 30.4409C41.2288 30.1869 41.517 29.7551 41.4967 29.4584C41.4641 28.8735 41.7183 28.4988 41.7435 27.9312C41.7701 27.2732 41.6891 26.6052 41.7571 25.9478C41.8158 25.3561 42.0386 24.8656 42.0397 24.2483C42.0451 23.8945 42.1973 22.0531 41.8988 21.53C41.7536 21.2726 41.6989 20.5063 41.6871 20.1934C41.6567 19.4686 40.9205 18.8566 40.8982 18.1401C40.9005 17.992 40.6675 18.0626 40.6866 17.89C40.6329 17.6093 40.5375 17.3445 40.4422 17.0797C40.315 16.7238 40.3423 16.5678 40.022 16.3819C39.7758 16.23 38.5449 14.919 38.1544 14.4522C37.8288 14.0686 37.1395 14.1898 36.6718 13.8947C36.2368 13.6247 34.7745 13.9152 34.6517 13.8228C34.3732 13.6128 33.9234 13.7788 33.6141 13.9634C33.4217 14.084 33.2206 14.2373 32.9884 14.2502C32.9585 14.5873 32.7728 14.8149 32.5868 15.059C32.4431 15.2461 32.3406 15.4503 32.3203 15.697C32.1719 15.6535 31.2543 17.1623 31.1102 17.3824C31.1279 17.8518 30.6112 18.0579 30.4723 18.4756C30.2728 19.0652 30.1562 19.6478 30.2046 20.2823C30.1586 20.5862 30.0056 20.839 29.8774 21.1004C29.7066 21.4353 29.7681 21.749 29.7542 22.1192C29.7005 23.4765 30.014 24.65 29.737 25.9792C29.6389 26.4387 29.8068 26.8363 29.9332 27.2415C30.0836 27.7047 30.085 28.1575 30.2688 28.5965C30.4606 29.0603 30.7528 29.4516 30.7036 29.9694C30.6849 30.109 31.0004 31.1509 31.2158 31.146C31.3318 31.1477 31.9742 31.9394 32.1599 32.255C32.5393 32.911 32.3258 33.3276 32.9402 33.7814C33.2514 34.0165 33.9371 34.6854 33.9768 34.8013C34.0513 34.8024 34.1176 34.8034 34.1921 34.8045C34.2813 34.9294 34.7416 35.1668 34.9402 35.1781C35.205 35.1985 35.4099 35.3416 35.692 35.3129C35.9244 35.2835 36.2752 35.0913 36.4493 35.0857C36.8058 35.0665 37.0561 34.9468 37.4182 35.1005C38.7831 34.685 38.8626 34.3569 39.5881 34.0387C39.7195 33.5716 40.3246 32.4531 40.8094 31.6209L40.8089 31.6539Z" fill="white"/>
<path fill-rule="evenodd" clip-rule="evenodd" d="M45.7308 20.683C45.638 20.7968 45.537 20.9023 45.436 21.0077C45.3267 21.1131 45.3224 21.3929 45.2721 21.4333C45.239 21.4328 45.1976 21.4321 45.1645 21.4316C45.0443 21.7096 44.9863 21.7088 44.7245 22.034C44.311 22.5381 43.2451 24.5384 43.0822 24.9063C42.8762 25.3806 42.8101 25.9146 42.6124 26.3808C42.5524 26.5198 42.3483 26.8624 42.2802 26.9848C42.025 27.4254 41.9162 27.4978 41.9235 28.107C41.9428 29.0209 41.7061 30.4248 42.0021 31.1125C42.1298 31.4354 42.1514 32.7362 42.4644 32.8562C42.6867 32.9419 42.7638 33.8649 42.8601 34.0721C42.9725 34.3043 43.1524 34.4634 43.1398 34.7431C43.1367 34.9488 43.0583 35.2028 43.1298 35.4014C43.2886 35.8565 43.8779 36.3264 44.2217 36.595C44.6066 36.8889 44.7741 36.768 45.2446 36.8739C45.6739 36.971 45.9942 37.1569 46.4658 37.1888C47.2768 37.2423 47.9579 37.1209 48.6899 36.9263C49.0142 36.8407 49.4786 36.8066 49.6409 36.488C49.7434 36.2838 49.8705 36.0964 49.8908 35.8498C50.0427 35.6628 50.2159 35.7148 50.2698 35.4358C50.3149 35.1978 50.9127 34.5566 51.0972 34.4113C51.2983 34.2579 51.3879 34.3581 51.5657 34.1056C51.7096 33.902 51.862 33.6903 52.0142 33.4869C52.4285 32.9335 52.8404 31.9932 53.0795 31.5194C53.1139 31.4376 53.1823 31.2988 53.1909 31.2742C53.2767 31.078 53.2484 30.7648 53.3097 30.5435C53.3772 30.4622 53.453 30.381 53.5288 30.2999C53.5911 30.0127 53.471 29.7393 53.5417 29.4523C53.6213 29.116 53.8818 28.8731 53.7717 28.4845C53.8614 28.0332 54.2266 27.9894 54.2265 27.4461C54.2265 26.3596 54.5039 25.549 54.2717 24.4755C54.1088 23.7487 54.0384 22.9245 53.8761 22.1566C53.7757 21.6777 53.7561 21.3317 53.5393 20.8839C53.4508 20.7097 52.8975 20.0511 52.7269 19.8345C52.6378 19.7014 52.5487 19.5684 52.4762 19.4274C52.3144 19.178 52.1794 19.3405 52.0901 19.2157C52.0088 19.1157 51.9192 19.0156 51.8211 18.9318C51.5604 18.6397 51.4829 18.8361 51.1539 18.683C51.0058 18.6149 50.1471 18.429 50.1394 18.3959C50.0756 18.2303 49.5211 18.1972 49.4133 18.2038C48.7416 18.2512 48.0525 18.8992 47.5683 19.147C47.3679 19.251 47.1779 19.2152 46.9186 19.3841C46.7764 19.4725 45.9668 20.415 45.731 20.6748L45.7308 20.683Z" fill="white"/>
<path fill-rule="evenodd" clip-rule="evenodd" d="M23.2104 21.1721C23.1106 21.2035 22.7415 21.5024 22.6656 21.5918C22.4129 21.8678 22.015 21.8865 21.8529 22.1968C21.4692 22.9153 20.8427 23.2597 20.2711 23.8107C19.8844 24.1835 19.2238 25.6797 18.8618 26.061C18.584 26.3531 18.4976 27.1337 18.4911 27.5616C18.4847 27.9813 17.9602 30.3356 18.1675 30.8655C18.3667 31.3871 18.133 32.0502 18.1578 32.5939C18.1833 33.0963 18.444 33.3884 18.3943 33.9309C18.3548 34.35 18.4517 34.5161 18.5539 34.8798C18.5854 34.9873 20.3083 37.7214 20.5363 37.9801C20.6909 38.1635 20.8791 38.3145 21.0085 38.5222C21.1542 38.7467 21.3989 38.9973 21.5864 39.1977C21.8715 39.5148 23.9489 40.1802 24.103 40.3965C24.2977 40.6628 25.694 40.9063 25.9907 41.0013C26.4605 41.1566 26.9794 40.8106 27.3645 40.5448C27.7496 40.279 28.2227 40.2122 28.3383 39.6954C28.4089 39.4084 28.6086 39.3538 28.7446 39.1254C28.8464 38.9623 28.8581 38.7403 28.9848 38.5776C29.103 38.4312 29.2256 38.5401 29.2462 38.277C29.2664 38.0386 29.2364 37.8324 29.4129 37.6622C29.665 37.4273 29.5275 36.6598 29.6992 36.2673C29.922 35.7768 29.8104 34.9438 29.802 34.4087C29.7983 33.5609 29.8276 32.7218 29.8653 31.8745C29.8889 31.414 29.8959 30.9532 29.8448 30.4997C29.8232 30.2854 29.7727 30.334 29.7409 30.2512C29.5333 29.7377 29.5855 29.0306 29.2863 28.5487C29.0842 28.2164 29.3317 27.7428 29.1799 27.3701C28.9483 26.8069 29.1814 26.1849 28.9156 25.687C28.5933 25.0895 28.3794 24.4442 28.0154 23.8707C27.9344 23.746 27.8195 23.6785 27.6872 23.66C27.6744 23.4129 27.5614 23.2218 27.4568 23.0145C27.4088 22.9067 27.1003 22.4905 26.9502 22.5541C27.0456 22.2757 26.3983 21.8049 26.1253 21.7843C25.6537 21.7442 25.5935 21.3482 25.1402 21.1932C25.0621 20.8792 23.4521 21.077 23.2023 21.1637L23.2104 21.1721Z" fill="white"/>
<path fill-rule="evenodd" clip-rule="evenodd" d="M55.4542 31.745C55.1274 31.987 54.7157 32.3676 54.3488 32.5266C53.8235 32.7573 53.3174 33.3505 52.9701 33.8555C52.7414 34.1895 52.5434 34.1371 52.3156 34.4053C51.9446 34.8359 51.4513 35.1411 51.1535 35.6552C50.7539 36.3323 50.3968 36.9359 49.9397 37.5792C49.7195 37.8969 49.6509 38.0522 49.5618 38.4624C49.4556 38.9135 49.1888 39.0247 49.1805 39.5678C49.1743 40.5225 48.9589 41.0707 48.9941 42.026C49.0167 42.7177 49.4133 44.4193 49.8382 44.8044C50.2876 45.2145 50.7523 45.7072 51.1042 45.9924C51.1288 46.0092 51.3341 46.1276 51.3176 46.1191C51.4983 46.2206 51.5228 46.2457 51.7446 46.3643C52.0651 46.5338 52.2511 46.8329 52.5716 47.0024C52.9002 47.1802 53.4965 47.1893 53.8785 47.1292C54.2272 47.0769 54.6321 46.5974 54.9626 46.6518C55.1443 46.6875 55.3448 46.5753 55.4957 46.4624C55.8726 46.1883 56.1532 46.2584 56.5705 46.0507C56.7792 45.9469 57.2796 45.724 57.4619 45.7186C58.2411 45.681 58.7697 44.6931 59.4655 44.1522C59.6164 44.0311 60.0882 43.5114 60.2646 43.3495C60.4493 43.1877 60.5234 43.2217 60.6249 43.0834C60.6926 42.9856 61.6734 42.2268 61.6603 41.9962C61.7187 41.4209 62.2618 41.1164 62.2731 40.919C62.285 40.6805 62.6556 40.2746 62.7589 40.021C62.9052 39.661 63.2883 39.5269 63.3202 39.0583C63.3408 38.7952 63.4786 38.4516 63.498 38.2626C63.5192 37.9583 63.8124 37.7406 63.8339 37.4199C63.8565 37.0169 64.1764 36.6843 64.2742 36.2413C64.3367 35.946 64.3662 35.6419 64.346 35.337C64.3265 34.9828 64.1218 34.8233 64.0936 34.5019C64.0727 34.2382 64.1016 33.9752 64.1056 33.7119C64.1118 33.3005 63.8425 33.033 63.5818 32.7492C63.476 32.6241 63.2379 32.4806 63.1404 32.3556C63.0841 32.2477 62.797 32.0623 62.7225 32.0529C62.7232 32.0118 62.4367 31.7852 62.1916 31.5593C62.0854 31.4589 62.0633 31.2775 61.9818 31.1939C61.8513 31.0602 61.5634 30.9242 61.4141 30.9384C60.9414 30.9723 60.6804 30.705 60.2255 30.6569C59.1835 30.5423 55.7977 31.4868 55.4459 31.7449L55.4542 31.745Z" fill="white"/>
<path fill-rule="evenodd" clip-rule="evenodd" d="M19.1797 52.6101C19.3982 52.4076 19.7826 52.183 20.0426 51.9729C20.3781 51.6982 20.6421 51.2248 21.034 51.0579C21.1155 50.5982 21.6372 50.0629 21.5944 49.6096C21.5723 49.4282 21.7723 48.8057 21.8745 48.6261C22.155 48.153 21.9386 47.6723 22.1201 47.1812C22.3272 46.6329 22.3608 46.0573 22.3615 45.4646C22.3596 45.0448 22.1497 44.6877 22.139 44.3007C22.077 42.9252 21.2031 41.5621 20.5412 40.4162C20.2669 39.9346 20.2678 39.3338 19.9249 38.9993C19.5983 38.6898 19.1308 38.3782 18.9122 38.0456C18.7746 37.8378 18.6431 37.7699 18.5474 37.5215C18.4119 37.1738 18.2372 37.2205 17.9837 37.0027C17.8038 36.8518 17.6661 36.6439 17.435 36.591C17.0636 36.5031 15.4595 35.2194 13.4157 35.6163C13.3075 35.6476 13.1992 35.6871 13.0908 35.7349C13.0564 35.8166 12.8387 35.9697 12.7642 35.9686C12.7629 36.0509 12.6198 36.2051 12.5451 36.2122C12.3505 36.4808 11.9553 36.8699 11.6522 37.1863C11.4921 37.365 11.3013 37.3868 11.1656 37.5905C11.1059 37.7048 10.9088 38.138 10.7911 38.2515C10.6651 38.3648 10.1169 39.5582 10.1201 39.8875C10.1204 40.4142 10.2119 40.9342 10.1708 41.4603C10.1591 41.6824 10.0761 41.6976 10.0072 41.8694C9.94672 42.0331 10.0691 42.7016 10.0576 42.9155C10.0542 43.1377 9.94187 45.0784 10.0912 45.0642C10.1243 45.0647 10.4427 45.9174 10.4491 46.0409C10.4597 46.4362 10.5758 46.4297 10.6552 46.6531C10.9108 47.2743 11.087 48.7668 11.6203 49.1041C12.0059 49.3487 12.4992 50.1381 12.717 50.5283C12.8063 50.6449 13.1319 51.0202 13.272 51.0717C13.51 51.2152 13.6408 51.3325 13.9125 51.4436C14.3405 51.6229 14.6496 51.998 15.0513 52.2757C15.6415 52.6798 16.2423 52.3926 16.8498 52.7558C17.1699 52.9499 17.5367 52.7991 17.8756 52.8454C18.2145 52.8917 19.0285 52.7477 19.1713 52.6182L19.1797 52.6101Z" fill="white"/>
<path fill-rule="evenodd" clip-rule="evenodd" d="M32.4207 38.2178C32.3755 38.464 32.1353 38.4686 31.9846 38.5733C31.9426 38.6056 31.5419 38.8135 31.5502 38.8136C31.2458 39.2205 30.6831 39.1791 30.4606 39.6448C30.3494 39.8818 29.3626 40.4924 29.4732 40.848C29.2178 40.7536 29.2626 41.0753 29.0388 41.0883C28.6657 41.1074 28.853 41.3242 28.7103 41.4455C28.6772 41.445 28.6358 41.4444 28.6026 41.4439C28.2882 41.9659 28.3298 43.0447 28.2041 43.6848C28.0067 44.686 28.2806 45.7355 28.0418 46.736C27.8475 47.5315 27.5002 48.0365 27.1338 48.7059C26.8271 49.2609 26.7124 49.1769 26.228 49.4411C26.0526 49.5372 26.0586 49.6855 25.8508 49.7317C25.4767 49.8166 25.8488 49.8634 25.6804 50.0419L25.4651 50.0386L25.4615 50.2773C25.3869 50.2761 25.1515 50.503 25.0758 50.5842C24.9919 50.6487 24.9573 50.747 24.9719 50.8789C24.9049 51.4705 24.864 50.8937 24.6949 51.1134C24.602 51.2354 24.4958 51.6783 24.4685 51.8425C24.4177 51.9158 24.3428 51.9394 24.2602 51.9216C23.9948 51.9423 24.2577 52.0862 24.14 52.1997C24.0655 52.1985 23.9992 52.1975 23.9247 52.1964C23.9234 52.2787 23.7801 52.4411 23.7056 52.44C23.613 52.5374 23.8336 52.7382 23.5942 52.6852C23.4952 52.659 22.9093 53.0534 22.8249 53.1592C22.5121 53.5742 20.6934 53.8758 20.3358 53.9691C19.9783 54.0542 19.7131 54.0584 19.4116 54.2761C19.0264 54.5501 18.66 54.6762 18.2753 54.9173C18.0915 55.5647 17.8415 56.2112 17.7898 56.8853C17.7682 57.2142 17.6489 57.4347 17.5868 57.7053C17.5248 57.9678 17.5122 58.2557 17.4335 58.5261C17.3191 58.9688 17.5044 58.7659 17.5479 59.1781C17.5768 59.4583 17.4529 59.975 17.8328 60.0549C17.9319 60.0728 18.161 60.8089 18.2336 60.9334C18.4191 61.2655 18.3886 61.6354 18.6838 61.8374C18.8396 61.9386 19.0199 62.0648 19.1334 62.2311C19.2633 62.4059 19.4437 62.5239 19.4426 62.598C19.5171 62.5991 19.6554 62.7658 19.6542 62.8481C19.8012 62.982 19.9513 62.9185 20.0811 63.1015C20.2108 63.2846 20.4913 63.3629 20.6815 63.3823C21.5667 63.4615 22.4907 63.1628 23.3658 63.3572C23.8116 63.4545 24.024 63.6553 24.5047 63.6379C24.886 63.619 26.5195 63.5121 27.0637 63.6767C27.4348 63.7894 27.8206 63.4742 28.2103 63.4555C28.6993 63.4382 29.1879 63.4456 29.6678 63.4776C30.4704 63.5392 31.2054 63.6903 31.9835 63.7268C32.7369 63.7547 33.4937 64.1037 34.2631 64.1647C35.3884 64.2477 36.5112 63.952 37.6293 63.9689C38.1262 63.9765 38.6207 64.1404 39.118 64.1233C39.5325 64.1049 39.9249 63.8968 40.3478 63.8703C41.4423 63.8046 42.5587 63.9286 43.6605 63.9206C44.0663 63.9268 44.4804 63.9331 44.8764 64.0379C45.2229 64.1337 46.6959 64.2301 47.1843 64.254C47.6644 64.2778 48.1241 64.0049 48.5973 63.938C49.137 63.8557 49.7881 63.5281 50.3593 63.5532C51.1788 63.5904 51.8375 63.3123 52.5778 63.1096C53.0103 62.9927 53.5416 62.9184 53.8698 62.5777C54.055 62.383 54.0769 62.0376 54.2873 61.8186C54.4808 61.624 54.5705 61.7159 54.748 61.4799C54.8074 61.3903 55.0192 61.0807 55.0938 61.0736C55.196 60.8941 55.1828 60.6716 55.2849 60.4921C55.5486 60.0352 55.3343 59.4229 55.5577 58.8912C55.5828 58.3319 55.937 57.9175 55.938 57.3085C55.9442 56.897 55.6546 56.3329 55.7015 55.9715C55.7199 55.8483 55.676 55.469 55.5515 55.4836C55.4437 55.4902 55.1882 54.3175 55.0915 54.1349C54.7039 53.4788 54.7545 52.3273 54.1228 51.9226C53.6797 51.6442 53.2119 50.814 52.9697 50.3988C52.8001 50.1082 51.6716 49.1445 51.6246 48.9709L50.7384 48.9575C50.1918 48.9492 47.8701 48.0085 47.0838 47.4204C46.9774 47.3365 46.7289 46.7894 46.6847 46.4266C46.6265 45.899 46.1411 45.6776 46.0834 45.117C45.8776 45.0316 45.4144 44.4401 45.3456 44.0605C45.2382 43.4991 44.1634 41.1782 43.7116 40.3811C43.5179 40.049 43.4534 39.9328 43.2092 39.6492C43.0626 39.4824 42.9237 39.3568 42.7855 39.1818C42.4685 38.7819 42.0405 38.6026 41.7239 38.178C41.4723 37.8367 40.9095 37.8035 40.7163 37.4302C40.4669 36.949 40.0005 37.1147 39.5116 37.1238C38.6663 37.1439 37.6105 36.848 36.7943 37.1401C36.2279 37.3455 35.7001 37.1893 35.1347 37.3289C34.6525 37.445 32.8182 38.2238 32.4124 38.2176L32.4207 38.2178Z" fill="white"/>
<path fill-rule="evenodd" clip-rule="evenodd" d="M60.7625 45.0186C60.5029 45.204 59.9877 45.3114 59.8532 45.4411C59.6765 45.6195 58.2831 46.2815 58.0242 46.4174C57.6237 46.6089 57.3793 46.885 57.0745 47.3166C56.7024 47.8213 56.3546 48.3593 55.9499 48.8223C55.769 49.2805 55.7836 49.9556 55.3895 50.2706C55.416 50.7073 55.277 51.1332 55.2953 51.5614C55.3084 51.7921 55.5062 52.4042 55.4535 52.6009C55.3738 52.9372 55.8701 53.5291 55.9559 53.8843C56.0649 54.3387 56.4971 54.7897 56.8992 55.0428C57.2273 55.2535 57.2712 55.6328 57.5562 55.9581C57.6946 56.1166 57.8498 56.2671 57.9714 56.4418C58.166 56.7164 58.2839 56.5865 58.5554 56.7141C58.8928 56.8591 59.1701 57.1432 59.4995 57.2717C59.9524 57.4514 60.5576 57.4194 61.0964 57.3947C61.9003 57.3658 62.7229 57.2054 63.5279 57.1024C64.3246 57.0075 64.7236 56.3716 65.4234 56.1106C66.3563 55.7708 68.2568 54.9931 68.5169 53.6883C68.6244 53.1549 69.119 52.7674 69.3415 52.3016C69.4356 52.1055 69.2221 51.9788 69.4639 51.8754C69.6891 51.7719 69.5424 50.5268 69.5863 50.3628C69.6731 50.1008 69.8031 48.6294 69.8499 48.2762C69.9064 47.8326 69.9733 47.241 69.7475 46.8425C69.683 46.7263 68.9404 45.4392 68.7871 45.1735C68.5368 44.7417 68.1959 44.827 67.9524 44.4941C67.6195 44.0528 66.5981 44.2184 66.1105 44.1451C65.8708 44.1085 65.978 44.1431 65.7707 44.1564C65.5634 44.1697 65.1487 44.2046 64.9497 44.218C64.1867 44.2723 62.9756 43.8423 62.3602 44.5408C62.0789 44.5201 61.2983 44.6482 60.7707 45.027L60.7625 45.0186Z" fill="white"/>
</g>
<defs>
<clipPath id="clip0_1439_1052">
<rect width="60" height="50.4" fill="white" transform="matrix(-0.717766 0.696285 0.696285 0.717766 44.0195 0.0556641)"/>
</clipPath>
</defs>
</svg>
