<svg id="_Слой_2" data-name="Слой 2" xmlns="http://www.w3.org/2000/svg" viewBox="0 0 18 20">
    <defs>
        <style>
            .cls-1 {
            fill: #2471f5;
            stroke-width: 0px;
            }
        </style>
    </defs>
    <g id="_Слой_1-2" data-name="Слой 1">
        <path class="cls-1" d="M9,20H3c-1.65,0-3-1.35-3-3v-9c0-1.65,1.35-3,3-3h3v-.8c0-1.24,0-1.92.33-2.56.29-.57.74-1.02,1.31-1.31.64-.33,1.32-.33,2.56-.33h3.6c1.24,0,1.92,0,2.56.33.57.29,1.02.74,1.31,1.31.33.64.33,1.32.33,2.56v6.6c0,1.24,0,1.92-.33,2.56-.29.57-.74,1.02-1.31,1.31-.64.33-1.32.33-2.56.33h-1.8v2c0,1.65-1.35,3-3,3ZM3,7c-.55,0-1,.45-1,1v9c0,.55.45,1,1,1h6c.55,0,1-.45,1-1v-2c-1.11,0-1.76-.02-2.36-.33-.57-.29-1.02-.74-1.31-1.31-.33-.64-.33-1.32-.33-2.56v-3.8h-3ZM8,6v4.8c0,.87,0,1.44.11,1.65.1.19.25.34.44.44.21.11.79.11,1.65.11h3.6c.87,0,1.44,0,1.65-.11.19-.1.34-.25.44-.44.11-.21.11-.79.11-1.65v-6.6c0-.87,0-1.44-.11-1.65-.1-.19-.25-.34-.44-.44-.21-.11-.79-.11-1.65-.11h-3.6c-.87,0-1.44,0-1.65.11-.19.1-.34.25-.44.44-.11.21-.11.79-.11,1.65v1.8Z"/>
    </g>
</svg>

