<svg width="22" height="24" viewBox="0 0 22 24" fill="none" xmlns="http://www.w3.org/2000/svg">
<g clip-path="url(#clip0_1294_594)">
<path fill-rule="evenodd" clip-rule="evenodd" d="M8.32082 1.36968C6.89461 2.11363 5.72777 2.74316 5.72802 2.76876C5.72865 2.83485 9.15096 4.57039 9.27244 4.56616C9.32769 4.56431 9.72853 4.37955 10.1631 4.15563L10.9535 3.74858L11.8166 4.19285L12.6797 4.6372L14.0932 4.0012C16.223 3.04284 16.4442 2.93782 16.4095 2.90254C16.3635 2.85573 15.5996 2.44478 13.527 1.35215C12.5254 0.824068 11.5532 0.306303 11.3665 0.201533C11.1799 0.0967636 11.0018 0.0124834 10.9706 0.0141148C10.9395 0.0157462 9.74706 0.625755 8.32082 1.36968ZM2.06547 4.61331L0.580804 5.38123V8.7515C0.580804 10.6052 0.600299 12.1217 0.624212 12.1217C0.648042 12.1217 1.3785 11.8047 2.24742 11.4171L3.82727 10.7125V7.16005L4.59929 7.58123C5.1942 7.90549 5.78946 8.22909 6.38508 8.55203L7.39883 9.10165L7.84993 8.89739C8.13283 8.76908 8.41518 8.63953 8.69694 8.50873C8.91467 8.40719 9.44916 8.16613 9.88466 7.97293C10.3201 7.77965 10.7233 7.58529 10.7804 7.541C10.8564 7.48215 9.93044 6.96978 7.35567 5.6458C5.41485 4.64779 3.76464 3.83441 3.68854 3.8383C3.61244 3.8422 2.88206 4.19091 2.06547 4.61331ZM16.6771 4.82896C15.666 5.28606 14.8379 5.67831 14.837 5.70068C14.8361 5.72303 15.3872 6.05116 16.0618 6.42976C16.7363 6.80844 17.2881 7.13851 17.2881 7.16337C17.2881 7.18817 16.6913 7.47776 15.9619 7.80703C15.2323 8.13621 13.3885 8.97006 11.8642 9.66003L6.75698 11.9717C5.47226 12.5533 4.31423 13.0774 4.18359 13.1367C1.55948 14.3262 0.838217 14.6563 0.739167 14.7129C0.639565 14.77 0.617005 15.1014 0.599277 16.7647L0.578125 18.7485L1.90578 19.4259L3.23341 20.1032L5.07438 19.2713C6.08694 18.8137 6.91535 18.4154 6.91535 18.3861C6.91535 18.3568 6.72824 18.2347 6.49965 18.1147C6.27096 17.9946 5.79888 17.7288 5.45048 17.5239C5.1021 17.319 4.75473 17.131 4.67846 17.1061C4.60222 17.0812 4.54094 17.0377 4.54218 17.0093C4.54345 16.981 5.35413 16.5955 6.34358 16.1524C8.2654 15.292 9.73612 14.6288 12.8936 13.199C14.3055 12.5598 15.7175 11.921 17.1298 11.2825C18.371 10.7216 19.814 10.0664 20.3367 9.82657L21.2868 9.3906L21.308 7.38421L21.3292 5.37791L19.9826 4.68581C19.242 4.30519 18.6089 3.9947 18.5757 3.99583C18.5425 3.99688 17.6882 4.37175 16.6771 4.82896ZM20.9261 12.0672C20.7276 12.1643 20.3357 12.346 20.0551 12.471C19.7745 12.596 19.242 12.8366 18.8718 13.0057L18.1987 13.3131L18.1834 15.0746C18.1749 16.0433 18.1393 16.8317 18.1042 16.8265C18.0245 16.8147 16.7631 16.1669 15.4951 15.4865C14.5799 14.9955 14.5224 14.976 14.3073 15.0826C14.183 15.1443 13.4399 15.478 12.656 15.8244C11.8721 16.1706 11.2052 16.4766 11.1738 16.5043C11.1425 16.5319 12.7202 17.3882 14.6799 18.4072L18.2429 20.2599L19.7649 19.4715C20.6019 19.0379 21.3137 18.6424 21.3464 18.5927C21.4202 18.4808 21.4139 11.8754 21.34 11.8843C21.3108 11.8878 21.1245 11.9702 20.9261 12.0672ZM12.4977 19.8203C12.2337 19.934 11.9697 20.0478 11.7058 20.1618C10.909 20.507 11.0652 20.5184 10.1172 20.0459C9.48583 19.7311 9.21367 19.634 9.09554 19.6812C9.00693 19.7165 8.24433 20.0601 7.40074 20.4446C6.5572 20.8292 5.83776 21.1438 5.80197 21.1438C5.44805 21.1438 6.03643 21.4958 8.3069 22.6426L10.9696 23.9875L12.09 23.4337C12.7061 23.129 13.949 22.519 14.8519 22.0781C15.7547 21.6371 16.4822 21.2648 16.4686 21.2508C16.4549 21.2368 15.6984 20.8478 14.7874 20.3863L13.1311 19.5474L12.4977 19.8203Z" fill="#2471F5"/>
</g>
<defs>
<clipPath id="clip0_1294_594">
<rect width="20.8421" height="24" fill="white" transform="translate(0.578125)"/>
</clipPath>
</defs>
</svg>
