<svg id="_Слой_2" data-name="Слой 2" xmlns="http://www.w3.org/2000/svg" viewBox="0 0 20 18">
    <defs>
        <style>
            .cls-1 {
            fill: #2471f5;
            stroke-width: 0px;
            }
        </style>
    </defs>
    <g id="_Слой_1-2" data-name="Слой 1">
        <g>
            <path class="cls-1" d="M19.41,8l-1.71-1.71c-.39-.39-1.02-.39-1.41,0s-.39,1.02,0,1.41l1.29,1.29h-1.52c-.6,0-1.04,0-1.48.24-.44.24-.68.6-1.02,1.1l-.81,1.22c-.13.2-.28.42-.25.43-.07.02-.34.02-.58.02h-3.86c-.24,0-.5,0-.5.03-.06-.05-.2-.27-.34-.47l-.81-1.22c-.33-.5-.57-.86-1.02-1.1-.44-.24-.88-.24-1.48-.24h-1.52l1.29-1.29c.39-.39.39-1.02,0-1.41s-1.02-.39-1.41,0l-1.71,1.71c-.38.38-.59.88-.59,1.41v5.59c0,1.65,1.35,3,3,3h14c1.65,0,3-1.35,3-3v-5.59c0-.53-.21-1.04-.59-1.41ZM17,16H3c-.55,0-1-.45-1-1v-4h1.93c.24,0,.5,0,.5-.03.06.05.2.27.34.47l.81,1.22c.33.5.57.86,1.02,1.1.44.24.88.24,1.48.24h3.86c.6,0,1.04,0,1.48-.24.44-.24.68-.6,1.02-1.1l.81-1.22c.13-.2.28-.42.25-.43.07-.02.34-.02.58-.02h1.93v4c0,.55-.45,1-1,1Z"/>
            <path class="cls-1" d="M9.34,8.75c.07.06.15.11.23.15.04.02.09.04.14.05,0,0,0,0,0,0,.04.01.09.02.14.03,0,0,0,0,0,0h0c.05,0,.1.01.16.01h0s.1,0,.14-.01h0s0,0,0,0c.06,0,.13-.02.19-.05h0s0,0,0,0c.03-.01.07-.03.1-.04.08-.04.16-.09.22-.15l3.49-2.99c.42-.36.47-.99.11-1.41-.36-.42-.99-.47-1.41-.11l-1.85,1.58V1c0-.55-.45-1-1-1s-1,.45-1,1v4.83l-1.85-1.58c-.42-.36-1.05-.31-1.41.11-.36.42-.31,1.05.11,1.41l3.49,2.99Z"/>
        </g>
    </g>
</svg>
