<svg id="_Слой_2" data-name="Слой 2" xmlns="http://www.w3.org/2000/svg" viewBox="0 0 23.24 17.58">
    <defs>
        <style>
            .cls-1 {
            fill: #2471f5;
            stroke-width: 0px;
            }
        </style>
    </defs>
    <g id="_Слой_1-2" data-name="Слой 1">
        <path class="cls-1" d="M15.56.26c-.36-.29-.85-.34-1.27-.14-.42.2-.67.62-.67,1.08v1.59h-3c-.55,0-1,.45-1,1s.45,1,1,1h5v-1.94l4.38,3.44-4.38,3.44v-1.94h-6v-1.59c0-.46-.26-.88-.67-1.08-.42-.2-.9-.15-1.27.14L0,11.29l7.68,6.03c.22.17.48.26.74.26.18,0,.36-.04.53-.12.42-.2.68-.62.68-1.08v-1.59h3c.55,0,1-.45,1-1s-.45-1-1-1h-5v1.94l-4.38-3.44,4.38-3.44v1.94h6v1.59c0,.46.26.88.68,1.08.17.08.35.12.53.12.26,0,.52-.09.74-.26l7.68-6.03L15.56.26Z"/>
    </g>
</svg>
