<svg id="_Слой_2" data-name="Слой 2" xmlns="http://www.w3.org/2000/svg" viewBox="0 0 16 20">
    <defs>
        <style>
            .cls-1 {
            fill: #2471f5;
            stroke-width: 0px;
            }
        </style>
    </defs>
    <g id="_Слой_1-2" data-name="Слой 1">
        <path class="cls-1" d="M15.39,4.94c-.67-1.62-1.87-2.99-3.39-3.87C10.48.2,8.69-.16,6.95.07c-1.74.23-3.37,1.04-4.61,2.27S.3,5.22.07,6.96c-.23,1.74.13,3.53,1,5.04.28.48.89.64,1.37.37.48-.28.64-.89.37-1.37-.66-1.14-.92-2.48-.75-3.78.17-1.3.78-2.53,1.71-3.46s2.16-1.53,3.46-1.71c1.3-.17,2.65.1,3.78.75,1.14.66,2.04,1.69,2.54,2.9.5,1.21.59,2.58.25,3.85-.34,1.27-1.1,2.41-2.14,3.21-.92.71-2.04,1.11-3.2,1.2l2.26-2.26c.39-.39.39-1.02,0-1.41s-1.02-.39-1.41,0l-4.71,4.71,4.71,4.71c.2.2.45.29.71.29s.51-.1.71-.29c.39-.39.39-1.02,0-1.41l-2.32-2.32c1.62-.08,3.2-.63,4.49-1.62,1.39-1.07,2.4-2.59,2.86-4.28.45-1.69.33-3.51-.34-5.13Z"/>
    </g>
</svg>
