<svg xmlns="http://www.w3.org/2000/svg" width="120" height="221" fill="none"><g fill="#000" clip-path="url(#a)"><path d="M62.985 216.212c13.264-30.013 31.906-57.206 45.953-86.826 4.051-8.504 7.688-17.204 10.759-26.122 1.459-4.22-2.919-7.476-6.708-6.733-17.01 3.41-34.062 6.164-51.18 8.962-7.209 1.181-14.352 1.924-21.626 2.645-7.274.722-15.223 1.618-22.345 4.394-2.94 1.137-5.532 4.919-3.245 8.023 9.91 13.553 18.076 28.308 23.565 44.221a364.854 364.854 0 0 1 7.579 24.767c2.221 8.307 3.658 17.248 3.724 26.166.043 7.039 10.933 7.039 10.89 0-.044-9.509-1.46-18.952-3.856-28.155-2.243-8.613-4.922-17.269-7.818-25.685-5.815-16.81-14.2-32.483-24.675-46.823l-3.245 8.022c6.664-2.579 13.742-3.453 20.82-4.131 7.775-.721 15.441-1.639 23.15-2.907 17.119-2.776 34.171-5.553 51.18-8.963l-6.708-6.732c-10.475 30.45-28.355 57.468-43.47 85.667-4.334 8.088-8.45 16.285-12.152 24.68-1.198 2.688-.784 5.88 1.96 7.475 2.309 1.356 6.25.744 7.448-1.967v.022Z"/><path d="M81.363 105.167c9.452-22.887 9.43-50.714 3.115-74.41C81.603 19.96 77.313 8.461 66.619 3.302c-9.452-4.547-20.58-4.066-30.316-.569C29.53 5.16 23.498 8.81 18.031 13.488c-5.466 4.678-10.127 10.1-15.354 14.974-5.227 4.875 2.57 12.525 7.71 7.738 8.341-7.804 15.44-16.875 26.004-21.772 7.404-3.432 16.116-4.809 23.695-2.098 3.07 1.093 6.272 3.519 8.276 6.667 2.657 4.153 4.094 9.159 5.4 13.88 2.984 10.887 4.182 22.188 3.986 33.468-.24 12.263-2.2 24.548-6.882 35.915-1.132 2.732 1.22 6.011 3.811 6.733 3.136.874 5.576-1.072 6.708-3.826h-.022Z"/><path d="M62.091 111.417c4.204-7.651 5.62-16.635 6.273-25.226.653-8.59.326-17.925-1.416-26.646-1.633-8.132-4.857-16.81-12.414-21.117-7.97-4.546-18.86-2.994-25.96 2.558-7.71 6.033-9.691 16.088-15.593 23.499l9.103 2.404c-1.241-7.454-3.55-14.886-5.706-22.121-1.132-3.848-2.308-7.695-3.79-11.411-1.328-3.345-3.048-7.476-7.339-7.454-7.012 0-7.012 10.951 0 10.93-1.045 0-2.918-.875-3.332-1.268-.218-.197-.697-1.29-.479-.569.13.416.457.918.653 1.312.436.852-.348-.874-.087-.219.11.306.24.59.349.897.283.743.566 1.508.827 2.251 1.307 3.716 2.418 7.476 3.507 11.258 1.807 6.317 3.811 12.788 4.878 19.28.632 3.869 6.643 5.487 9.104 2.404 2.657-3.322 4.856-6.842 6.794-10.623 1.59-3.083 3.028-6.296 5.053-9.138 3.158-4.437 10.193-7.17 15.594-5.071.304.11 1.85 1.027 2.308 1.42 1.372 1.181 2.09 2.209 2.918 3.76 1.481 2.711 2.265 5.946 2.919 8.963 1.524 7.017 1.764 14.559 1.394 21.947-.196 4.153-.654 8.263-1.525 12.329-.806 3.781-1.764 7.06-3.44 10.099-3.398 6.164 6.01 11.673 9.407 5.509v.043Z"/></g><defs><clipPath id="a"><path fill="#fff" d="M120 221H0V0h120z"/></clipPath></defs></svg>